# xmcd
#
# Track frame offsets:
#	182
#	21710
#	45915
#	63807
#	81247
#	99502
#	122585
#	136530
#	159905
#	194180
#	214080
#	237415
#	260442
#	279725
#	303170
#
# Disc length: 4430 seconds
# Revision: 0
# Processed by: cddbd v1.5.2PL0 Copyright (c) Steve Scherf et al.
# Submitted via: dBpowerAMP V12.0
#
DISCID=cd114c0f
DTITLE=Steve Earle and The Dukes - The Road and the Sky
DYEAR=1992
DGENRE=Country
TTITLE0=Copperhead Road
TTITLE1=Good ol' boy (Gettin' tough)
TTITLE2=The Rain Came Down
TTITLE3=San Antonio Girl
TTITLE4=Even When I`m Blue
TTITLE5=Someday
TTITLE6=The Devil`s Right Hand
TTITLE7=Johnny Comme Lately
TTITLE8=Nothing But a Child
TTITLE9=The Week of Living Dangerously
TTITLE10=Waiting on You
TTITLE11=You Belong to Me
TTITLE12=No. 29
TTITLE13=My Baby Worships Me
TTITLE14=It`s All Up to You
EXTD=
EXTT0=
EXTT1=
EXTT2=
EXTT3=
EXTT4=
EXTT5=
EXTT6=
EXTT7=
EXTT8=
EXTT9=
EXTT10=
EXTT11=
EXTT12=
EXTT13=
EXTT14=
PLAYORDER=
